PathFileType	4	(X/Y/Z)	10_2_75_p0_0-507_filt_butterworth.trc
DataRate	CameraRate	NumFrames	NumMarkers	Units	OrigDataRate	OrigDataStartFrame	OrigNumFrames
60.0	60.0	6	27	m	60.0	443	507
Frame#	Time	RHip			RKnee			RAnkle			RBigToe			RSmallToe			RHeel			LHip			LKnee			LAnkle			LBigToe			LSmallToe			LHeel			Neck			Head			Nose			RShoulder			RElbow			RWrist			RThumb			RIndex			RPinky			LShoulder			LElbow			LWrist			LThumb			LIndex			LPinky			
		X1	Y1	Z1	X2	Y2	Z2	X3	Y3	Z3	X4	Y4	Z4	X5	Y5	Z5	X6	Y6	Z6	X7	Y7	Z7	X8	Y8	Z8	X9	Y9	Z9	X10	Y10	Z10	X11	Y11	Z11	X12	Y12	Z12	X13	Y13	Z13	X14	Y14	Z14	X15	Y15	Z15	X16	Y16	Z16	X17	Y17	Z17	X18	Y18	Z18	X19	Y19	Z19	X20	Y20	Z20	X21	Y21	Z21	X22	Y22	Z22	X23	Y23	Z23	X24	Y24	Z24	X25	Y25	Z25	X26	Y26	Z26	X27	Y27	Z27	
443	7.383333333333334	0.30092359004353486	0.8152251089353681	0.7337363707897546	0.3050367539880852	0.33307229745114886	0.769232306933849	0.29848981363306076	-0.10104478794115143	0.8083888112325996	0.2759195628281762	-0.09225897874919009	0.5862198227455051	0.32540950891320697	-0.10952811938734185	0.6361245342654832	0.27035758523753406	-0.1744062091012087	0.8757254906584656	0.07372399349029385	0.8167222986542131	0.7018250871311618	0.08257037597295211	0.358215192462239	0.7363170419067286	0.08445267433536656	-0.09418469430959596	0.7774084996053755	0.12367124577638698	-0.11334575766672891	0.5902123876660186	0.06301918046966325	-0.10069326516392849	0.6178142990851447	0.09198549285260735	-0.16752596057727304	0.8651873288559353	0.19195360518202823	1.4149056091286514	0.7079723405036196	0.21503638826618066	1.666919845687759	0.6212824260342955	0.216296464291317	1.5429079588307821	0.5399812735614536	0.3680132460077582	1.315584924237765	0.7333012907213785	0.4039527402168824	1.0248163990873673	0.7504532145533777	0.4183153774386208	0.762195848313529	0.7203627827093071	0.36428614668977266	0.661591374169052	0.6374202229728461	0.384049761028653	0.6061131854527598	0.6530481905530278	0.4216088543667913	0.5894538641234276	0.7350505316889501	0.041804879032945885	1.3339685396775063	0.7070795644367437	-0.024382888720674643	1.033921681529386	0.7078162294224579	-0.03214432499707361	0.7796150063975775	0.6807024729061302	0.01794369277223174	0.6759085779260288	0.6180095434625886	-0.016794389366129654	0.6328213274631286	0.6567439261169357	-0.04262235355510389	0.6376071813847943	0.6750780042610918	
444	7.4	0.3007514671861596	0.8153378234327722	0.7336202825218705	0.30496592207908124	0.3325403267359049	0.7694167542954682	0.29856295684109857	-0.10071778557595898	0.808345454588184	0.2759515165693092	-0.09223398500419275	0.5861915056207221	0.3254607421681405	-0.1095798920469696	0.6361514309520742	0.27001492103293867	-0.17334490615874423	0.8754020421869336	0.07370396106434982	0.8170622949431829	0.7017072931781323	0.08257182243274512	0.35825930074948475	0.7363500590239581	0.08429731328228236	-0.0943477256681452	0.7775605123724068	0.123673410319274	-0.11350728061203919	0.590244878967238	0.06291452595276695	-0.0999070913386714	0.6182580780583364	0.09202898079579787	-0.16756959179400252	0.8646881502133076	0.19197069044128579	1.414877500525348	0.7079398256376357	0.21505021441105254	1.6669696974898516	0.620958166595242	0.2172867222255034	1.54318383670509	0.5377540795381361	0.3679591280067807	1.3164816822706986	0.7332907758575431	0.4038891517312319	1.0241024042280946	0.750490069875824	0.41837098619972846	0.7622509502410296	0.7201182461047172	0.3643083347065579	0.6608446871141715	0.6375264669489777	0.38332330636639567	0.6062612782111488	0.6526067398904325	0.4216540156685598	0.5887915985931154	0.7347447325673864	0.04180228277164979	1.3353295498529127	0.7073101466227179	-0.02376642736705855	1.0348464673140492	0.7075541556343409	-0.03211657200626762	0.7796495658407848	0.6807255866120534	0.017864051378489555	0.6766444615627905	0.6178259918405049	-0.017819820414412123	0.6319128885727197	0.6590493410070049	-0.04241744475870801	0.6369329591197843	0.676969440340011	
445	7.416666666666667	0.30062574558259136	0.8154697149697406	0.7334909952880861	0.3048947230821193	0.3320340406777079	0.769595019956576	0.29862545527688583	-0.10046115267359416	0.808304678354247	0.2759717078696931	-0.09221004975075567	0.5861706512280855	0.32548332247695133	-0.10959364487939938	0.6361609482089611	0.26967976602010163	-0.1724463176272427	0.8751052923133695	0.07367819432170655	0.8174166534517108	0.7015830933869569	0.08256857452898216	0.35833997578419163	0.7364012606607916	0.08415061752012537	-0.09440038725948889	0.777656244529008	0.12366141292789258	-0.11363672226277689	0.5902620466290963	0.06281281075979595	-0.09912780695598766	0.6186942661007983	0.09181721103084649	-0.16800842635756547	0.8649232414263829	0.19198308551715904	1.4148710525655286	0.7079270824751155	0.21505313461402897	1.6672353731580505	0.6207612517942978	0.21787346751525166	1.543558654863875	0.5360165979400815	0.36787772338481806	1.317284917474976	0.733262688738924	0.4038382444420473	1.0235432239828335	0.7505146172880259	0.41846642337662776	0.7623303165660078	0.7196950962831574	0.3643278780479584	0.6604321715129494	0.6375848973584546	0.38277848564108546	0.6063909343631125	0.6522888098802919	0.42164160639809345	0.5880912380238222	0.7346151775360872	0.04180077345826357	1.3366857628973585	0.707537967683187	-0.02311394885732597	1.0352060247214747	0.7068043515527002	-0.03209387523359419	0.7796736267910064	0.6807446132586684	0.01780801008855667	0.6770902785307114	0.6177305546207299	-0.01900043339473943	0.6308725241534238	0.6616901974035044	-0.04230909537794419	0.6365329625689717	0.6779713330886064	
446	7.433333333333334	0.30049469248532	0.815568264791028	0.7333382834624489	0.30488953289310117	0.33167891595358523	0.7695896405118909	0.2986611577480858	-0.1003458440170538	0.808274844828303	0.27597598718149563	-0.09219834732396272	0.5861600631510242	0.3254733982491208	-0.10955856816813253	0.6361273034997581	0.2693583479760554	-0.17168358027607347	0.8748290717895214	0.07364934129736551	0.8177938561708175	0.701453672081213	0.08256456082050294	0.3584165201137385	0.7364508760198314	0.08402015107342166	-0.09436185718535549	0.7776915249130593	0.12361200660901389	-0.11352936302547738	0.5901932022236346	0.062735788675269	-0.09853003114931726	0.6190333232737016	0.09143548803519072	-0.16867799032983471	0.8656258135611142	0.19198987721253272	1.4148751394383663	0.7079356324669074	0.21504810558261095	1.667707657290495	0.6207300863774694	0.2180613311164657	1.543991088524307	0.5350315970299886	0.3678402078339693	1.3177626739388968	0.7332294695462918	0.4038060074201249	1.0232171376000851	0.7505245777300129	0.41851812931445986	0.7622963959025539	0.7194051506371493	0.3643451368022662	0.6602982298852254	0.6376034619010982	0.3824825964140712	0.6064235585201452	0.6521554020388606	0.4215583806800956	0.5873860805595483	0.7346542603214853	0.04180091656712784	1.3376527673223126	0.7077126192223027	-0.02255427528394972	1.0349013224427144	0.7058388266473941	-0.03208132136739253	0.7796815531005863	0.6807606714886495	0.017778140100115056	0.6772742363711932	0.6176974379252261	-0.020186320522654337	0.6298347936489598	0.6643211023889519	-0.04229278184885232	0.636435177015358	0.6781322220669723	
447	7.45	0.30033994141750253	0.8156155833032033	0.7331668953632045	0.3049864997449447	0.3315381774729777	0.7693115329852932	0.29866758238363783	-0.10038754998576119	0.8082558771460755	0.2759700370121597	-0.09218721645496251	0.5861505633366306	0.3254348054414856	-0.10947663711863267	0.6360437603017342	0.2690578089855061	-0.1710716526587458	0.8745782674464279	0.07361888957382845	0.8181941991422219	0.701318489774978	0.08256456830792877	0.3584448799068748	0.7364783790872613	0.083902559491829	-0.09429930025559566	0.777662080512236	0.12351431113959055	-0.11303972586642592	0.5899872941688403	0.06271144441602322	-0.0983098924589524	0.6191595709936936	0.09098114060715784	-0.16942243960269912	0.8664033429929873	0.1919913777790923	1.4148796584563303	0.7079567406442586	0.21503494143573987	1.6683214201618661	0.6208570647005713	0.2178472334801316	1.5444592282115328	0.5348312416200488	0.367836438559928	1.3177730911841725	0.7331958306332849	0.40379380713734725	1.0231295439069792	0.7505187733689898	0.41839013264651004	0.7619700924904234	0.7198388588651006	0.36436265983846794	0.6603995774408358	0.637580780889447	0.38252794317419614	0.606384251987085	0.6521797849621421	0.4214151661323394	0.5866783831927356	0.7347938706858446	0.0418022822065033	1.3380827067821828	0.7078106692018634	-0.022194342655940103	1.0339832411113083	0.7049223214840581	-0.03208110262465404	0.7796701375253017	0.6807736972272364	0.017767421682953057	0.6773243519949435	0.617682084585618	-0.02126011153739161	0.6288989872371628	0.6666837975881178	-0.042331254947154756	0.6365589230260907	0.6778077750446068	
448	7.466666666666667	0.3001670455610031	0.8156208135128425	0.732990317209673	0.30518381270149153	0.33160136800335305	0.7687675822923923	0.29865612295013066	-0.10053428623110218	0.8082428121183561	0.2759543828906357	-0.09216033347964608	0.5861459300142142	0.32537463439361514	-0.10935713962595137	0.6359291059583284	0.26878672093987543	-0.1706434566732667	0.8743666643048114	0.07358773824972739	0.818610227708599	0.7011785638441481	0.08257067866514795	0.35840670624681814	0.7364749609852542	0.08379184624564844	-0.09428382413049607	0.7775661215804405	0.12337823716615778	-0.11217734006261067	0.5896486471711552	0.06275728208261207	-0.09853174126052901	0.6190093263780322	0.0904866505686652	-0.1701911747915187	0.8670781920777816	0.19198695010195257	1.4148817282446626	0.7079801132748816	0.21501358808734908	1.6689893558155853	0.6210816857400482	0.21724390957708245	1.5449595273254357	0.5351424402115976	0.3678356189780162	1.3173445202695016	0.7331656051644204	0.40379586516126487	1.023188012469804	0.7505014695448452	0.4179974817396559	0.7612770733686683	0.7213737211853664	0.3643845845534618	0.6606143671120256	0.637529672201127	0.38297111992691274	0.6063654947741461	0.6521872396769063	0.42125459676163235	0.5859500556710314	0.7349686528517871	0.04180419442156576	1.3380845319524082	0.7078334988484231	-0.022061540414180066	1.0326777965848604	0.7043810405129456	-0.032091221538610756	0.7796400285194365	0.6807812439032493	0.017770981737605468	0.6773123000556641	0.6176811868081304	-0.022094629355750118	0.6281715487658875	0.6685165202593093	-0.04236631809850547	0.6366837452039474	0.6775040404122481	
